<?xml version="1.0" standalone="no"?><!DOCTYPE svg PUBLIC "-//W3C//DTD SVG 1.1//EN" "http://www.w3.org/Graphics/SVG/1.1/DTD/svg11.dtd"><svg class="icon" width="200px" height="200.00px" viewBox="0 0 1024 1024" version="1.1" xmlns="http://www.w3.org/2000/svg"><path d="M639.132 414.725h255.279c35.258 0 63.815 28.395 63.815 63.815v414.823c0 35.258-28.401 63.815-63.815 63.815H479.588c-35.264 0-63.816-28.395-63.816-63.815V638.09h127.631c53.167 0 95.729-42.858 95.729-95.729V414.725zM64.764 127.538c0-35.264 28.401-63.821 63.815-63.821h414.823c35.264 0 63.821 28.401 63.821 63.821v414.823c0 35.258-28.401 63.816-63.821 63.816H128.58c-35.253 0-63.815-28.401-63.815-63.816V127.538z m127.643 275.471h46.583v-24.693h67.205v117.937h49.358V378.316h68.579v20.578h50.732V242.571H355.553v-34.27c0-10.051 1.374-18.735 4.149-26.039a10.402 10.402 0 0 0 1.34-4.149c0-0.893-3.189-1.787-9.571-2.708h-46.683v67.166H192.407v160.438z m46.582-122.019h67.205v60.309h-67.172v-60.275l-0.033-0.034z m185.143 60.309h-68.579v-60.275h68.579v60.303-0.028z m203.256 486.618l19.209-53.485h100.101l19.209 53.485h54.819l-89.123-253.648h-64.452l-91.837 253.682h52.111l-0.037-0.034z m32.93-95.985l37.023-108.299h1.368l34.27 108.299h-72.661z m234.093-412.936H830.59c0-70.494-57.148-127.642-127.637-127.642v-63.816c105.741 0 191.458 85.717 191.458 191.458zM128.58 701.906h63.827c0 70.494 57.142 127.631 127.637 127.631v63.827c-105.742-0.001-191.464-85.717-191.464-191.458z m0 0" /></svg>