<?xml version="1.0" standalone="no"?><!DOCTYPE svg PUBLIC "-//W3C//DTD SVG 1.1//EN" "http://www.w3.org/Graphics/SVG/1.1/DTD/svg11.dtd"><svg class="icon" width="200px" height="200.00px" viewBox="0 0 1024 1024" version="1.1" xmlns="http://www.w3.org/2000/svg"><path d="M640.57142832 415.57142832h257.14285752c35.55 0 64.28571416 28.60714248 64.28571416 64.28571416V897.71428584c0 35.55-28.60714248 64.28571416-64.28571416 64.28571416H479.85714248c-35.55 0-64.28571416-28.60714248-64.28571416-64.28571416V640.57142832h128.5714292C597.69285752 640.57142832 640.57142832 597.43571416 640.57142832 544.14285752v-128.5714292zM62 126.28571416c0-35.48571416 28.60714248-64.28571416 64.28571416-64.28571416h417.85714336c35.55 0 64.28571416 28.60714248 64.28571416 64.28571416v417.85714336c0 35.55-28.60714248 64.28571416-64.28571416 64.28571416H126.28571416c-35.48571416 0-64.28571416-28.60714248-64.28571416-64.28571416V126.28571416z m514.28571416 679.24285752h46.92857168v-24.81428584h67.69285664v118.8h49.75714336V780.71428584h69.04285664v20.7h51.10714336v-157.5h-120.21428584v-34.52142832c0-10.09285752 1.41428584-18.83571416 4.24285752-26.22857168a10.60714248 10.60714248 0 0 0 1.28571416-4.11428584c0-0.9-3.21428584-1.8-9.64285752-2.76428584h-46.99285664v67.69285752H576.28571416v161.55z m46.92857168-122.91428584h67.69285664v60.81428584H623.21428584v-60.75z m186.49285664 60.81428584h-69.10714248v-60.75h69.10714248v60.75zM243.02857168 446.10714248l19.34999999-53.87142832h100.86428585l19.28571415 53.87142832h55.28571417L348.00714248 190.57142832h-64.9285708L190.57142832 446.10714248h52.5214292-0.06428584z m33.17142832-96.68571415l37.28571416-109.15714249h1.41428584l34.52142832 109.15714248H276.2zM897.71428584 319.14285752h-64.28571416a128.57142832 128.57142832 0 0 0-128.5714292-128.5714292V126.28571416a192.85714248 192.85714248 0 0 1 192.85714336 192.85714336zM126.28571416 704.85714248h64.28571416a128.57142832 128.57142832 0 0 0 128.5714292 128.5714292v64.28571416a192.85714248 192.85714248 0 0 1-192.85714336-192.85714336z" /></svg>