<?xml version="1.0" standalone="no"?><!DOCTYPE svg PUBLIC "-//W3C//DTD SVG 1.1//EN" "http://www.w3.org/Graphics/SVG/1.1/DTD/svg11.dtd"><svg width="1em" height="1em" viewBox="0 0 1024 1024" version="1.1" xmlns="http://www.w3.org/2000/svg"><path d="M326.53637334 738.33997167c227.42059395 0 411.76037373-184.36859648 411.76037374-411.78919042 0-100.77164473-36.30891357-192.95594297-96.3915214-264.53637334C827.54175166 121.60713359 961.9711833 295.48648848 961.9711833 500.92001826c0 254.65227979-206.41329404 461.06557383-461.06557383 461.06557383-205.43352979 0-379.31288379-134.42943164-438.90560947-320.0659585 71.58043037 60.11142451 163.79354531 96.42033809 264.53637334 96.42033809z" fill="#FFD93B" /><path d="M785.87295049 139.04117597c61.66752012 78.35233096 98.72566612 176.99154698 98.72566612 284.4774589 0 254.65227979-206.41329404 461.06557383-461.06557383 461.06557382-107.48591191 0-206.12512792-37.05814511-284.4774589-98.72566611 84.375 107.1112957 214.94300713 176.12704951 361.87884229 176.12704951 254.65227979 0 461.06557383-206.41329404 461.06557383-461.06557383 0-146.93583516-69.01575293-277.47502558-176.12704951-361.87884229z" fill="#F4C534" /><path d="M292.76331963 242.00288193l47.4897542 96.27625459 106.21798154 15.41688047-76.85386787 74.92315606 18.12564052 105.78573193-94.97950839-49.93916485-95.0083251 49.93916485L215.88063506 428.61917305l-76.85386787-74.92315605 106.21798154-15.41688047zM560.64241778 211.19793769l24.609375 49.91034903 55.06851972 7.98219755-39.85335528 38.84477432 9.42302726 54.80917032-49.24756671-25.87730537-49.2475667 25.87730537 9.42302813-54.80917032-39.85335527-38.84477432 55.06851884-7.98219755z" fill="#FFD83B" /></svg>