<?xml version="1.0" standalone="no"?><!DOCTYPE svg PUBLIC "-//W3C//DTD SVG 1.1//EN" "http://www.w3.org/Graphics/SVG/1.1/DTD/svg11.dtd"><svg  width="1em" height="1em" viewBox="0 0 1024 1024" version="1.1" xmlns="http://www.w3.org/2000/svg"><path d="M512 62a15.00000029 15.00000029 0 0 0-15.00000029 15.00000029v90a15.00000029 15.00000029 0 0 0 30.00000058 0V77.00000029a15.00000029 15.00000029 0 0 0-15.00000029-15.00000029zM512 842.00000029a15.00000029 15.00000029 0 0 0-15.00000029 14.99999942v90a15.00000029 15.00000029 0 0 0 30.00000058 0v-90a15.00000029 15.00000029 0 0 0-15.00000029-14.99999942zM946.99999971 496.99999971h-90a15.00000029 15.00000029 0 0 0 0 30.00000058h90a15.00000029 15.00000029 0 0 0 0-30.00000058zM181.99999971 512a15.00000029 15.00000029 0 0 0-14.99999942-15.00000029H77.00000029a15.00000029 15.00000029 0 0 0 0 30.00000058h90a15.00000029 15.00000029 0 0 0 14.99999942-15.00000029zM755.96000029 283.04a14.95500029 14.95500029 0 0 0 10.60499971-4.39499971l86.04-86.04a14.985 14.985 0 1 0-21.21000029-21.21000029l-86.04 86.04a14.985 14.985 0 0 0 10.60500058 25.605zM257.435 745.35499971l-86.04 86.04a14.985 14.985 0 1 0 21.21000029 21.21000029l86.04-86.04a14.985 14.985 0 1 0-21.21000029-21.21000029zM766.565 745.35499971a14.985 14.985 0 1 0-21.21000029 21.21000029l86.04 86.04a14.95500029 14.95500029 0 0 0 21.21000029 0 14.985 14.985 0 0 0 0-21.21000029l-86.04-86.04zM192.60500029 171.395a14.985 14.985 0 1 0-21.21000029 21.21000029l86.04 86.04a14.95500029 14.95500029 0 0 0 21.21000029 0 14.985 14.985 0 0 0 0-21.21000029L192.60500029 171.395zM815.76500029 383.05999971a15.01499971 15.01499971 0 0 0 19.665 7.95000058l41.42999971-17.58000058a15.00000029 15.00000029 0 0 0-11.71500029-27.61499971l-41.42999971 17.57999971a15.00000029 15.00000029 0 0 0-7.94999971 19.665zM208.23499971 640.94000029a15.00000029 15.00000029 0 0 0-19.665-7.95000058l-41.42999971 17.58000058a15.00000029 15.00000029 0 0 0 11.71500029 27.61499971l41.42999971-17.57999971a15.00000029 15.00000029 0 0 0 7.94999971-19.665zM879.21500029 644.19499971L837.50000029 627.31999971a15.00000029 15.00000029 0 0 0-11.23500058 27.82500029l41.73000029 16.85999971a15.00000029 15.00000029 0 0 0 11.22000029-27.81zM144.78499971 379.81999971L186.49999971 396.68000029a15.00000029 15.00000029 0 0 0 11.23500058-27.82500029l-41.73000029-16.85999971a15.00000029 15.00000029 0 1 0-11.22000029 27.82499942zM660.60500029 823.715a15.01499971 15.01499971 0 0 0-27.61500058 11.71500029l17.58000058 41.42999971a15.01499971 15.01499971 0 0 0 19.665 7.94999971 15.00000029 15.00000029 0 0 0 7.94999971-19.665l-17.57999971-41.42999971zM377.20999971 209.43500029a15.00000029 15.00000029 0 0 0 13.80000058-20.86500058l-17.58000058-41.42999971a15.00000029 15.00000029 0 0 0-27.61499971 11.71500029l17.57999971 41.42999971a15.00000029 15.00000029 0 0 0 13.815 9.15000029zM388.385 817.97000029a15.03 15.03 0 0 0-19.53 8.29499942l-16.85999971 41.73000029a15.00000029 15.00000029 0 0 0 27.82499942 11.23499971l16.86000058-41.72999942a15.00000029 15.00000029 0 0 0-8.29500029-19.53zM641.22499971 207.125a15.00000029 15.00000029 0 0 0 13.92000029-9.38999971l16.85999971-41.73000029a15.00000029 15.00000029 0 0 0-27.82499942-11.23499971L627.31999971 186.49999971a15.00000029 15.00000029 0 0 0 13.905 20.62500029z" fill="#F0C419" /><path d="M512 512m-299.99999971 0a299.99999971 299.99999971 0 1 0 599.99999942 0 299.99999971 299.99999971 0 1 0-599.99999942 0Z" fill="#F0C419" /><path d="M512 512m-225 0a225 225 0 1 0 450 0 225 225 0 1 0-450 0Z" fill="#EDE21B" /></svg>